<?xml version="1.0" encoding="UTF-8" standalone="no"?>
<!DOCTYPE svg PUBLIC "-//W3C//DTD SVG 1.1//EN"
 "http://www.w3.org/Graphics/SVG/1.1/DTD/svg11.dtd">
<!-- Generated by graphviz version 12.2.1 (0)
 -->
<!-- Pages: 1 -->
<svg width="1746pt" height="637pt"
 viewBox="0.00 0.00 1745.50 636.50" xmlns="http://www.w3.org/2000/svg" xmlns:xlink="http://www.w3.org/1999/xlink">
<g id="graph0" class="graph" transform="scale(1 1) rotate(0) translate(4 632.5)">
<polygon fill="white" stroke="none" points="-4,4 -4,-632.5 1741.5,-632.5 1741.5,4 -4,4"/>
<text text-anchor="middle" x="868.75" y="-4.95" font-family="Times,serif" font-size="14.00">State Machine</text>
<!-- PoweredOff -->
<g id="node1" class="node">
<title>PoweredOff</title>
<path fill="white" stroke="black" d="M70.25,-258.25C70.25,-258.25 13,-258.25 13,-258.25 7,-258.25 1,-252.25 1,-246.25 1,-246.25 1,-234.25 1,-234.25 1,-228.25 7,-222.25 13,-222.25 13,-222.25 70.25,-222.25 70.25,-222.25 76.25,-222.25 82.25,-228.25 82.25,-234.25 82.25,-234.25 82.25,-246.25 82.25,-246.25 82.25,-252.25 76.25,-258.25 70.25,-258.25"/>
<text text-anchor="start" x="9" y="-234.07" font-family="Times,serif" font-size="14.00">PoweredOff</text>
</g>
<!-- PoweredOff&#45;&gt;PoweredOff -->
<g id="edge1" class="edge">
<title>PoweredOff&#45;&gt;PoweredOff</title>
<path fill="none" stroke="black" d="M23.49,-258.4C20.7,-267.79 26.74,-276.25 41.62,-276.25 50,-276.25 55.57,-273.57 58.35,-269.56"/>
<polygon fill="black" stroke="black" points="61.79,-270.26 59.57,-259.9 54.84,-269.39 61.79,-270.26"/>
<text text-anchor="middle" x="41.62" y="-277.2" font-family="Times,serif" font-size="14.00">hard_shutdown</text>
</g>
<!-- POST -->
<g id="node2" class="node">
<title>POST</title>
<path fill="white" stroke="black" d="M269,-295.25C269,-295.25 239,-295.25 239,-295.25 233,-295.25 227,-289.25 227,-283.25 227,-283.25 227,-271.25 227,-271.25 227,-265.25 233,-259.25 239,-259.25 239,-259.25 269,-259.25 269,-259.25 275,-259.25 281,-265.25 281,-271.25 281,-271.25 281,-283.25 281,-283.25 281,-289.25 275,-295.25 269,-295.25"/>
<text text-anchor="start" x="235" y="-271.07" font-family="Times,serif" font-size="14.00">POST</text>
</g>
<!-- PoweredOff&#45;&gt;POST -->
<g id="edge2" class="edge">
<title>PoweredOff&#45;&gt;POST</title>
<path fill="none" stroke="black" d="M82.48,-251.24C88.41,-252.7 94.47,-254.09 100.25,-255.25 139.26,-263.11 184.42,-269.26 215.46,-273.03"/>
<polygon fill="black" stroke="black" points="214.78,-276.47 225.13,-274.18 215.61,-269.52 214.78,-276.47"/>
<text text-anchor="middle" x="141.88" y="-269.8" font-family="Times,serif" font-size="14.00">power_on</text>
</g>
<!-- POST&#45;&gt;PoweredOff -->
<g id="edge16" class="edge">
<title>POST&#45;&gt;PoweredOff</title>
<path fill="none" stroke="black" d="M228.68,-258.92C215.94,-250.46 199.66,-241.34 183.5,-237 154.45,-229.2 120.82,-229.64 93.7,-232.2"/>
<polygon fill="black" stroke="black" points="93.58,-228.7 84.01,-233.25 94.33,-235.66 93.58,-228.7"/>
<text text-anchor="middle" x="141.88" y="-237.95" font-family="Times,serif" font-size="14.00">hard_shutdown</text>
</g>
<!-- EnterBIOS -->
<g id="node3" class="node">
<title>EnterBIOS</title>
<path fill="white" stroke="black" d="M595.38,-408.25C595.38,-408.25 543.38,-408.25 543.38,-408.25 537.38,-408.25 531.38,-402.25 531.38,-396.25 531.38,-396.25 531.38,-384.25 531.38,-384.25 531.38,-378.25 537.38,-372.25 543.38,-372.25 543.38,-372.25 595.38,-372.25 595.38,-372.25 601.38,-372.25 607.38,-378.25 607.38,-384.25 607.38,-384.25 607.38,-396.25 607.38,-396.25 607.38,-402.25 601.38,-408.25 595.38,-408.25"/>
<text text-anchor="start" x="539.38" y="-384.07" font-family="Times,serif" font-size="14.00">EnterBIOS</text>
</g>
<!-- POST&#45;&gt;EnterBIOS -->
<g id="edge17" class="edge">
<title>POST&#45;&gt;EnterBIOS</title>
<path fill="none" stroke="black" d="M265.12,-295.51C276.77,-314.61 297.77,-343.79 324.5,-358.25 385.82,-391.44 468.13,-395.31 519.71,-393.76"/>
<polygon fill="black" stroke="black" points="519.81,-397.26 529.66,-393.37 519.53,-390.26 519.81,-397.26"/>
<text text-anchor="middle" x="411.12" y="-394.95" font-family="Times,serif" font-size="14.00">enter_bios</text>
</g>
<!-- IdleWaitingForInput -->
<g id="node5" class="node">
<title>IdleWaitingForInput</title>
<path fill="darksalmon" stroke="red" d="M866.5,-304.25C866.5,-304.25 763.5,-304.25 763.5,-304.25 757.5,-304.25 751.5,-298.25 751.5,-292.25 751.5,-292.25 751.5,-280.25 751.5,-280.25 751.5,-274.25 757.5,-268.25 763.5,-268.25 763.5,-268.25 866.5,-268.25 866.5,-268.25 872.5,-268.25 878.5,-274.25 878.5,-280.25 878.5,-280.25 878.5,-292.25 878.5,-292.25 878.5,-298.25 872.5,-304.25 866.5,-304.25"/>
<path fill="none" stroke="red" d="M870.5,-308.25C870.5,-308.25 759.5,-308.25 759.5,-308.25 753.5,-308.25 747.5,-302.25 747.5,-296.25 747.5,-296.25 747.5,-276.25 747.5,-276.25 747.5,-270.25 753.5,-264.25 759.5,-264.25 759.5,-264.25 870.5,-264.25 870.5,-264.25 876.5,-264.25 882.5,-270.25 882.5,-276.25 882.5,-276.25 882.5,-296.25 882.5,-296.25 882.5,-302.25 876.5,-308.25 870.5,-308.25"/>
<text text-anchor="start" x="759.5" y="-280.07" font-family="Times,serif" font-size="14.00">IdleWaitingForInput</text>
</g>
<!-- POST&#45;&gt;IdleWaitingForInput -->
<g id="edge20" class="edge">
<title>POST&#45;&gt;IdleWaitingForInput</title>
<path fill="none" stroke="black" d="M281.21,-277.67C361.88,-278.97 608.65,-282.94 736.06,-285"/>
<polygon fill="black" stroke="black" points="735.69,-288.49 745.75,-285.15 735.8,-281.49 735.69,-288.49"/>
<text text-anchor="middle" x="569.38" y="-284.03" font-family="Times,serif" font-size="14.00">go_idle</text>
</g>
<!-- WaitingForOS -->
<g id="node6" class="node">
<title>WaitingForOS</title>
<path fill="white" stroke="black" d="M604.75,-124.25C604.75,-124.25 534,-124.25 534,-124.25 528,-124.25 522,-118.25 522,-112.25 522,-112.25 522,-100.25 522,-100.25 522,-94.25 528,-88.25 534,-88.25 534,-88.25 604.75,-88.25 604.75,-88.25 610.75,-88.25 616.75,-94.25 616.75,-100.25 616.75,-100.25 616.75,-112.25 616.75,-112.25 616.75,-118.25 610.75,-124.25 604.75,-124.25"/>
<text text-anchor="start" x="530" y="-100.08" font-family="Times,serif" font-size="14.00">WaitingForOS</text>
</g>
<!-- POST&#45;&gt;WaitingForOS -->
<g id="edge18" class="edge">
<title>POST&#45;&gt;WaitingForOS</title>
<path fill="none" stroke="black" d="M264.64,-258.89C281.46,-227.13 315.28,-164.67 324.5,-158 353.68,-136.9 447.96,-121.37 510.38,-113.08"/>
<polygon fill="black" stroke="black" points="510.68,-116.57 520.14,-111.81 509.77,-109.63 510.68,-116.57"/>
<text text-anchor="middle" x="411.12" y="-158.95" font-family="Times,serif" font-size="14.00">wait_os</text>
</g>
<!-- BootLoop -->
<g id="node12" class="node">
<title>BootLoop</title>
<path fill="white" stroke="black" d="M593.12,-178.25C593.12,-178.25 545.62,-178.25 545.62,-178.25 539.62,-178.25 533.62,-172.25 533.62,-166.25 533.62,-166.25 533.62,-154.25 533.62,-154.25 533.62,-148.25 539.62,-142.25 545.62,-142.25 545.62,-142.25 593.12,-142.25 593.12,-142.25 599.12,-142.25 605.12,-148.25 605.12,-154.25 605.12,-154.25 605.12,-166.25 605.12,-166.25 605.12,-172.25 599.12,-178.25 593.12,-178.25"/>
<text text-anchor="start" x="541.62" y="-154.07" font-family="Times,serif" font-size="14.00">BootLoop</text>
</g>
<!-- POST&#45;&gt;BootLoop -->
<g id="edge19" class="edge">
<title>POST&#45;&gt;BootLoop</title>
<path fill="none" stroke="black" d="M265.71,-258.92C277.57,-240.46 298.49,-212.79 324.5,-199 393.11,-162.62 421.3,-189.9 497.75,-176.25 505.66,-174.84 514.02,-173.13 522.11,-171.37"/>
<polygon fill="black" stroke="black" points="522.83,-174.8 531.82,-169.2 521.3,-167.97 522.83,-174.8"/>
<text text-anchor="middle" x="411.12" y="-199.95" font-family="Times,serif" font-size="14.00">unsuccessful_post</text>
</g>
<!-- BIOSSetup -->
<g id="node4" class="node">
<title>BIOSSetup</title>
<path fill="white" stroke="black" d="M841.75,-462.25C841.75,-462.25 788.25,-462.25 788.25,-462.25 782.25,-462.25 776.25,-456.25 776.25,-450.25 776.25,-450.25 776.25,-438.25 776.25,-438.25 776.25,-432.25 782.25,-426.25 788.25,-426.25 788.25,-426.25 841.75,-426.25 841.75,-426.25 847.75,-426.25 853.75,-432.25 853.75,-438.25 853.75,-438.25 853.75,-450.25 853.75,-450.25 853.75,-456.25 847.75,-462.25 841.75,-462.25"/>
<text text-anchor="start" x="784.25" y="-438.07" font-family="Times,serif" font-size="14.00">BIOSSetup</text>
</g>
<!-- EnterBIOS&#45;&gt;BIOSSetup -->
<g id="edge3" class="edge">
<title>EnterBIOS&#45;&gt;BIOSSetup</title>
<path fill="none" stroke="black" d="M607.69,-394.55C640.16,-398.7 688.33,-405.86 729.5,-416 741.22,-418.89 753.65,-422.64 765.27,-426.46"/>
<polygon fill="black" stroke="black" points="764.08,-429.76 774.67,-429.64 766.32,-423.12 764.08,-429.76"/>
<text text-anchor="middle" x="685.25" y="-416.95" font-family="Times,serif" font-size="14.00">start_bios_setup</text>
</g>
<!-- EnterBIOS&#45;&gt;IdleWaitingForInput -->
<g id="edge4" class="edge">
<title>EnterBIOS&#45;&gt;IdleWaitingForInput</title>
<path fill="none" stroke="black" d="M607.64,-374.34C645.73,-358.08 705.58,-332.53 751.03,-313.13"/>
<polygon fill="black" stroke="black" points="752.16,-316.45 759.99,-309.31 749.42,-310.01 752.16,-316.45"/>
<text text-anchor="middle" x="685.25" y="-360.47" font-family="Times,serif" font-size="14.00">go_idle</text>
</g>
<!-- BIOSSetup&#45;&gt;PoweredOff -->
<g id="edge5" class="edge">
<title>BIOSSetup&#45;&gt;PoweredOff</title>
<path fill="none" stroke="black" d="M775.97,-454.2C761.51,-457.61 744.84,-461.11 729.5,-463.25 551.01,-488.17 492.43,-508.67 324.5,-443.25 218.43,-401.93 115.54,-311.19 68.8,-266.36"/>
<polygon fill="black" stroke="black" points="71.44,-264.05 61.83,-259.6 66.57,-269.07 71.44,-264.05"/>
<text text-anchor="middle" x="411.12" y="-487.27" font-family="Times,serif" font-size="14.00">hard_shutdown</text>
</g>
<!-- BIOSSetup&#45;&gt;POST -->
<g id="edge6" class="edge">
<title>BIOSSetup&#45;&gt;POST</title>
<path fill="none" stroke="black" d="M775.91,-446.46C674.09,-451.63 398.39,-460.7 324.5,-412.25 287.78,-388.18 269.43,-338.29 261.08,-306.36"/>
<polygon fill="black" stroke="black" points="264.56,-305.86 258.8,-296.97 257.75,-307.51 264.56,-305.86"/>
<text text-anchor="middle" x="569.38" y="-451.64" font-family="Times,serif" font-size="14.00">finished_bios_setup</text>
</g>
<!-- IdleWaitingForInput&#45;&gt;PoweredOff -->
<g id="edge23" class="edge">
<title>IdleWaitingForInput&#45;&gt;PoweredOff</title>
<path fill="none" stroke="black" d="M783.75,-263.83C771.97,-254.56 758.65,-243.39 747.5,-232.25 685.48,-170.29 702.17,-116.9 623,-79.25 453.13,1.52 377.7,-51.42 201.5,-117.25 154.49,-134.82 139.25,-135.67 100.25,-167.25 84.5,-180 70.34,-197.8 60,-212.62"/>
<polygon fill="black" stroke="black" points="57.31,-210.35 54.63,-220.6 63.12,-214.27 57.31,-210.35"/>
<text text-anchor="middle" x="411.12" y="-70.19" font-family="Times,serif" font-size="14.00">hard_shutdown | soft_shutdown</text>
</g>
<!-- IdleWaitingForInput&#45;&gt;POST -->
<g id="edge24" class="edge">
<title>IdleWaitingForInput&#45;&gt;POST</title>
<path fill="none" stroke="black" d="M747,-276.08C710.45,-271.04 664.35,-265.51 623,-263 502.29,-255.68 359.06,-266.96 292.49,-273.34"/>
<polygon fill="black" stroke="black" points="292.46,-269.83 282.85,-274.29 293.15,-276.8 292.46,-269.83"/>
<text text-anchor="middle" x="569.38" y="-263.95" font-family="Times,serif" font-size="14.00">reboot</text>
</g>
<!-- WaitingForHWInfo -->
<g id="node7" class="node">
<title>WaitingForHWInfo</title>
<path fill="white" stroke="black" d="M1128,-304.25C1128,-304.25 1028.75,-304.25 1028.75,-304.25 1022.75,-304.25 1016.75,-298.25 1016.75,-292.25 1016.75,-292.25 1016.75,-280.25 1016.75,-280.25 1016.75,-274.25 1022.75,-268.25 1028.75,-268.25 1028.75,-268.25 1128,-268.25 1128,-268.25 1134,-268.25 1140,-274.25 1140,-280.25 1140,-280.25 1140,-292.25 1140,-292.25 1140,-298.25 1134,-304.25 1128,-304.25"/>
<text text-anchor="start" x="1024.75" y="-280.07" font-family="Times,serif" font-size="14.00">WaitingForHWInfo</text>
</g>
<!-- IdleWaitingForInput&#45;&gt;WaitingForHWInfo -->
<g id="edge25" class="edge">
<title>IdleWaitingForInput&#45;&gt;WaitingForHWInfo</title>
<path fill="none" stroke="black" d="M882.97,-286.25C920.42,-286.25 967.1,-286.25 1005.33,-286.25"/>
<polygon fill="black" stroke="black" points="1004.88,-289.75 1014.88,-286.25 1004.88,-282.75 1004.88,-289.75"/>
<text text-anchor="middle" x="949.62" y="-287.2" font-family="Times,serif" font-size="14.00">begin_automation</text>
</g>
<!-- WaitingForOS&#45;&gt;PoweredOff -->
<g id="edge7" class="edge">
<title>WaitingForOS&#45;&gt;PoweredOff</title>
<path fill="none" stroke="black" d="M521.53,-103.99C472.03,-102.62 391.94,-103.29 324.5,-117.25 267.23,-129.11 256.1,-143.04 201.5,-164 156.44,-181.3 143.27,-181.38 100.25,-203.25 92.96,-206.95 85.43,-211.34 78.32,-215.77"/>
<polygon fill="black" stroke="black" points="76.74,-212.62 70.21,-220.96 80.52,-218.52 76.74,-212.62"/>
<text text-anchor="middle" x="254" y="-164.95" font-family="Times,serif" font-size="14.00">hard_shutdown</text>
</g>
<!-- WaitingForOS&#45;&gt;WaitingForHWInfo -->
<g id="edge8" class="edge">
<title>WaitingForOS&#45;&gt;WaitingForHWInfo</title>
<path fill="none" stroke="black" d="M617.16,-122.86C708.79,-155.39 911.9,-227.5 1014.89,-264.07"/>
<polygon fill="black" stroke="black" points="1013.42,-267.26 1024.01,-267.31 1015.76,-260.66 1013.42,-267.26"/>
<text text-anchor="middle" x="815" y="-215.09" font-family="Times,serif" font-size="14.00">os_booted</text>
</g>
<!-- OCTypeDecision -->
<g id="node8" class="node">
<title>OCTypeDecision</title>
<path fill="white" stroke="black" d="M1368.25,-307.25C1368.25,-307.25 1281.75,-307.25 1281.75,-307.25 1275.75,-307.25 1269.75,-301.25 1269.75,-295.25 1269.75,-295.25 1269.75,-283.25 1269.75,-283.25 1269.75,-277.25 1275.75,-271.25 1281.75,-271.25 1281.75,-271.25 1368.25,-271.25 1368.25,-271.25 1374.25,-271.25 1380.25,-277.25 1380.25,-283.25 1380.25,-283.25 1380.25,-295.25 1380.25,-295.25 1380.25,-301.25 1374.25,-307.25 1368.25,-307.25"/>
<text text-anchor="start" x="1277.75" y="-283.07" font-family="Times,serif" font-size="14.00">OCTypeDecision</text>
</g>
<!-- WaitingForHWInfo&#45;&gt;OCTypeDecision -->
<g id="edge21" class="edge">
<title>WaitingForHWInfo&#45;&gt;OCTypeDecision</title>
<path fill="none" stroke="black" d="M1140.47,-287C1176.38,-287.44 1221.78,-288 1258.43,-288.45"/>
<polygon fill="black" stroke="black" points="1257.95,-291.94 1268,-288.56 1258.04,-284.94 1257.95,-291.94"/>
<text text-anchor="middle" x="1204.88" y="-289.31" font-family="Times,serif" font-size="14.00">hwinfo_available</text>
</g>
<!-- SynchronizeMulticoreVID -->
<g id="node9" class="node">
<title>SynchronizeMulticoreVID</title>
<path fill="white" stroke="black" d="M1724.38,-536.25C1724.38,-536.25 1586.12,-536.25 1586.12,-536.25 1580.12,-536.25 1574.12,-530.25 1574.12,-524.25 1574.12,-524.25 1574.12,-512.25 1574.12,-512.25 1574.12,-506.25 1580.12,-500.25 1586.12,-500.25 1586.12,-500.25 1724.38,-500.25 1724.38,-500.25 1730.38,-500.25 1736.38,-506.25 1736.38,-512.25 1736.38,-512.25 1736.38,-524.25 1736.38,-524.25 1736.38,-530.25 1730.38,-536.25 1724.38,-536.25"/>
<text text-anchor="start" x="1582.12" y="-512.08" font-family="Times,serif" font-size="14.00">SynchronizeMulticoreVID</text>
</g>
<!-- OCTypeDecision&#45;&gt;SynchronizeMulticoreVID -->
<g id="edge9" class="edge">
<title>OCTypeDecision&#45;&gt;SynchronizeMulticoreVID</title>
<path fill="none" stroke="black" d="M1352.31,-307.6C1410.89,-348.47 1552.14,-447.01 1618.58,-493.36"/>
<polygon fill="black" stroke="black" points="1616.37,-496.09 1626.58,-498.94 1620.38,-490.35 1616.37,-496.09"/>
<text text-anchor="middle" x="1476.62" y="-445.13" font-family="Times,serif" font-size="14.00">synchronize_vid</text>
</g>
<!-- PreciseMulticoreUndervolt -->
<g id="node10" class="node">
<title>PreciseMulticoreUndervolt</title>
<path fill="white" stroke="black" d="M1725.5,-362.25C1725.5,-362.25 1585,-362.25 1585,-362.25 1579,-362.25 1573,-356.25 1573,-350.25 1573,-350.25 1573,-338.25 1573,-338.25 1573,-332.25 1579,-326.25 1585,-326.25 1585,-326.25 1725.5,-326.25 1725.5,-326.25 1731.5,-326.25 1737.5,-332.25 1737.5,-338.25 1737.5,-338.25 1737.5,-350.25 1737.5,-350.25 1737.5,-356.25 1731.5,-362.25 1725.5,-362.25"/>
<text text-anchor="start" x="1581" y="-338.07" font-family="Times,serif" font-size="14.00">PreciseMulticoreUndervolt</text>
</g>
<!-- OCTypeDecision&#45;&gt;PreciseMulticoreUndervolt -->
<g id="edge10" class="edge">
<title>OCTypeDecision&#45;&gt;PreciseMulticoreUndervolt</title>
<path fill="none" stroke="black" d="M1380.52,-293.13C1427.16,-297.05 1495.92,-304.22 1555,-316 1564.57,-317.91 1574.57,-320.28 1584.37,-322.84"/>
<polygon fill="black" stroke="black" points="1583.3,-326.18 1593.86,-325.4 1585.12,-319.42 1583.3,-326.18"/>
<text text-anchor="middle" x="1476.62" y="-316.95" font-family="Times,serif" font-size="14.00">precise_multicore_undervolt</text>
</g>
<!-- SingleCoreTuning -->
<g id="node11" class="node">
<title>SingleCoreTuning</title>
<path fill="white" stroke="black" d="M1700.75,-195.25C1700.75,-195.25 1609.75,-195.25 1609.75,-195.25 1603.75,-195.25 1597.75,-189.25 1597.75,-183.25 1597.75,-183.25 1597.75,-171.25 1597.75,-171.25 1597.75,-165.25 1603.75,-159.25 1609.75,-159.25 1609.75,-159.25 1700.75,-159.25 1700.75,-159.25 1706.75,-159.25 1712.75,-165.25 1712.75,-171.25 1712.75,-171.25 1712.75,-183.25 1712.75,-183.25 1712.75,-189.25 1706.75,-195.25 1700.75,-195.25"/>
<text text-anchor="start" x="1605.75" y="-171.07" font-family="Times,serif" font-size="14.00">SingleCoreTuning</text>
</g>
<!-- OCTypeDecision&#45;&gt;SingleCoreTuning -->
<g id="edge11" class="edge">
<title>OCTypeDecision&#45;&gt;SingleCoreTuning</title>
<path fill="none" stroke="black" d="M1380.2,-270.76C1437.66,-251.15 1528.39,-220.19 1589.56,-199.32"/>
<polygon fill="black" stroke="black" points="1590.47,-202.71 1598.81,-196.17 1588.21,-196.08 1590.47,-202.71"/>
<text text-anchor="middle" x="1476.62" y="-263.13" font-family="Times,serif" font-size="14.00">single_core_tuning</text>
</g>
<!-- SynchronizeMulticoreVID&#45;&gt;PoweredOff -->
<g id="edge12" class="edge">
<title>SynchronizeMulticoreVID&#45;&gt;PoweredOff</title>
<path fill="none" stroke="black" d="M1617.37,-536.53C1557.69,-564.39 1435.55,-614.25 1326,-614.25 253,-614.25 253,-614.25 253,-614.25 170.87,-614.25 146.06,-578.42 100.25,-510.25 49.41,-434.59 42.3,-322.33 42.01,-269.61"/>
<polygon fill="black" stroke="black" points="45.51,-269.94 42.04,-259.93 38.51,-269.92 45.51,-269.94"/>
<text text-anchor="middle" x="815" y="-615.2" font-family="Times,serif" font-size="14.00">hard_shutdown</text>
</g>
<!-- SynchronizeMulticoreVID&#45;&gt;POST -->
<g id="edge13" class="edge">
<title>SynchronizeMulticoreVID&#45;&gt;POST</title>
<path fill="none" stroke="black" d="M1573.65,-518.25C1507.2,-518.25 1410.48,-518.25 1326,-518.25 948.62,-518.25 948.62,-518.25 948.62,-518.25 809.9,-518.25 435.1,-587.99 324.5,-504.25 262.72,-457.48 254.2,-356.98 254.03,-306.89"/>
<polygon fill="black" stroke="black" points="257.53,-307.13 254.12,-297.1 250.53,-307.07 257.53,-307.13"/>
<text text-anchor="middle" x="949.62" y="-520.76" font-family="Times,serif" font-size="14.00">reboot</text>
</g>
<!-- PreciseMulticoreUndervolt&#45;&gt;PoweredOff -->
<g id="edge14" class="edge">
<title>PreciseMulticoreUndervolt&#45;&gt;PoweredOff</title>
<path fill="none" stroke="black" d="M1644.61,-362.68C1629.48,-389.56 1597.44,-438.87 1555,-462.25 1541.34,-469.78 1014.25,-536.55 998.75,-538.25 860.21,-553.47 825.62,-564.25 686.25,-564.25 253,-564.25 253,-564.25 253,-564.25 113.29,-564.25 61.65,-349.73 47.26,-269.8"/>
<polygon fill="black" stroke="black" points="50.74,-269.35 45.59,-260.09 43.84,-270.54 50.74,-269.35"/>
<text text-anchor="middle" x="815" y="-564.33" font-family="Times,serif" font-size="14.00">hard_shutdown</text>
</g>
<!-- PreciseMulticoreUndervolt&#45;&gt;POST -->
<g id="edge15" class="edge">
<title>PreciseMulticoreUndervolt&#45;&gt;POST</title>
<path fill="none" stroke="black" d="M1572.64,-344.25C1506.22,-344.25 1410.06,-344.25 1326,-344.25 568.38,-344.25 568.38,-344.25 568.38,-344.25 466.67,-344.25 350.41,-310.08 292.26,-290.55"/>
<polygon fill="black" stroke="black" points="293.45,-287.26 282.85,-287.34 291.19,-293.88 293.45,-287.26"/>
<text text-anchor="middle" x="949.62" y="-345.2" font-family="Times,serif" font-size="14.00">reboot</text>
</g>
<!-- SingleCoreTuning&#45;&gt;PoweredOff -->
<g id="edge26" class="edge">
<title>SingleCoreTuning&#45;&gt;PoweredOff</title>
<path fill="none" stroke="black" d="M1632.85,-158.86C1582.79,-117.8 1452.67,-22.25 1326,-22.25 253,-22.25 253,-22.25 253,-22.25 172.34,-22.25 153.68,-59.82 100.25,-120.25 76.65,-146.94 60.57,-185.01 51.52,-211.07"/>
<polygon fill="black" stroke="black" points="48.27,-209.75 48.44,-220.34 54.91,-211.95 48.27,-209.75"/>
<text text-anchor="middle" x="815" y="-23.2" font-family="Times,serif" font-size="14.00">hard_shutdown</text>
</g>
<!-- SingleCoreTuning&#45;&gt;POST -->
<g id="edge27" class="edge">
<title>SingleCoreTuning&#45;&gt;POST</title>
<path fill="none" stroke="black" d="M1597.32,-177.25C1531.86,-177.25 1421.17,-177.25 1326,-177.25 814,-177.25 814,-177.25 814,-177.25 614.71,-177.25 381.62,-239.6 292.36,-265.83"/>
<polygon fill="black" stroke="black" points="291.5,-262.44 282.91,-268.64 293.5,-269.15 291.5,-262.44"/>
<text text-anchor="middle" x="949.62" y="-178.2" font-family="Times,serif" font-size="14.00">reboot</text>
</g>
<!-- BootLoop&#45;&gt;PoweredOff -->
<g id="edge22" class="edge">
<title>BootLoop&#45;&gt;PoweredOff</title>
<path fill="none" stroke="black" d="M533.49,-161.55C486.01,-163.65 398.49,-168.66 324.5,-179.25 223.7,-193.68 199.57,-203.78 100.25,-226.25 98.1,-226.74 95.91,-227.24 93.7,-227.75"/>
<polygon fill="black" stroke="black" points="92.98,-224.32 84.05,-230.02 94.59,-231.14 92.98,-224.32"/>
<text text-anchor="middle" x="254" y="-202.61" font-family="Times,serif" font-size="14.00">trigger_cmos_reset</text>
</g>
</g>
</svg>
