<?xml version="1.0" encoding="UTF-8" standalone="no"?>
<!DOCTYPE svg PUBLIC "-//W3C//DTD SVG 1.1//EN"
 "http://www.w3.org/Graphics/SVG/1.1/DTD/svg11.dtd">
<!-- Generated by graphviz version 12.1.2 (0)
 -->
<!-- Pages: 1 -->
<svg width="1856pt" height="543pt"
 viewBox="0.00 0.00 1856.00 543.32" xmlns="http://www.w3.org/2000/svg" xmlns:xlink="http://www.w3.org/1999/xlink">
<g id="graph0" class="graph" transform="scale(1 1) rotate(0) translate(4 539.32)">
<polygon fill="white" stroke="none" points="-4,4 -4,-539.32 1852,-539.32 1852,4 -4,4"/>
<text text-anchor="middle" x="924" y="-4.95" font-family="Times,serif" font-size="14.00">State Machine</text>
<!-- PoweredOff -->
<g id="node1" class="node">
<title>PoweredOff</title>
<path fill="white" stroke="black" d="M422.38,-349.07C422.38,-349.07 365.12,-349.07 365.12,-349.07 359.12,-349.07 353.12,-343.07 353.12,-337.07 353.12,-337.07 353.12,-325.07 353.12,-325.07 353.12,-319.07 359.12,-313.07 365.12,-313.07 365.12,-313.07 422.38,-313.07 422.38,-313.07 428.38,-313.07 434.38,-319.07 434.38,-325.07 434.38,-325.07 434.38,-337.07 434.38,-337.07 434.38,-343.07 428.38,-349.07 422.38,-349.07"/>
<text text-anchor="start" x="361.12" y="-324.89" font-family="Times,serif" font-size="14.00">PoweredOff</text>
</g>
<!-- POST -->
<g id="node2" class="node">
<title>POST</title>
<path fill="white" stroke="black" d="M676.88,-296.07C676.88,-296.07 646.88,-296.07 646.88,-296.07 640.88,-296.07 634.88,-290.07 634.88,-284.07 634.88,-284.07 634.88,-272.07 634.88,-272.07 634.88,-266.07 640.88,-260.07 646.88,-260.07 646.88,-260.07 676.88,-260.07 676.88,-260.07 682.88,-260.07 688.88,-266.07 688.88,-272.07 688.88,-272.07 688.88,-284.07 688.88,-284.07 688.88,-290.07 682.88,-296.07 676.88,-296.07"/>
<text text-anchor="start" x="642.88" y="-271.89" font-family="Times,serif" font-size="14.00">POST</text>
</g>
<!-- PoweredOff&#45;&gt;POST -->
<g id="edge1" class="edge">
<title>PoweredOff&#45;&gt;POST</title>
<path fill="none" stroke="black" d="M422.41,-312.63C433.95,-305.86 447.77,-298.86 461.25,-294.82 515.83,-278.45 582.3,-276.17 623.1,-276.65"/>
<polygon fill="black" stroke="black" points="622.82,-280.15 632.88,-276.84 622.95,-273.15 622.82,-280.15"/>
<text text-anchor="middle" x="502.88" y="-295.77" font-family="Times,serif" font-size="14.00">power_on</text>
</g>
<!-- POST&#45;&gt;PoweredOff -->
<g id="edge14" class="edge">
<title>POST&#45;&gt;PoweredOff</title>
<path fill="none" stroke="black" d="M634.73,-285.95C611.28,-292.8 575.83,-302.62 544.5,-309.07 511.9,-315.78 474.89,-321.24 445.82,-325.04"/>
<polygon fill="black" stroke="black" points="445.67,-321.53 436.2,-326.27 446.56,-328.47 445.67,-321.53"/>
<text text-anchor="middle" x="502.88" y="-323.63" font-family="Times,serif" font-size="14.00">hard_shutdown</text>
</g>
<!-- EnterBIOS -->
<g id="node3" class="node">
<title>EnterBIOS</title>
<path fill="white" stroke="black" d="M975.12,-325.07C975.12,-325.07 923.12,-325.07 923.12,-325.07 917.12,-325.07 911.12,-319.07 911.12,-313.07 911.12,-313.07 911.12,-301.07 911.12,-301.07 911.12,-295.07 917.12,-289.07 923.12,-289.07 923.12,-289.07 975.12,-289.07 975.12,-289.07 981.12,-289.07 987.12,-295.07 987.12,-301.07 987.12,-301.07 987.12,-313.07 987.12,-313.07 987.12,-319.07 981.12,-325.07 975.12,-325.07"/>
<text text-anchor="start" x="919.12" y="-300.89" font-family="Times,serif" font-size="14.00">EnterBIOS</text>
</g>
<!-- POST&#45;&gt;EnterBIOS -->
<g id="edge15" class="edge">
<title>POST&#45;&gt;EnterBIOS</title>
<path fill="none" stroke="black" d="M689.2,-280.75C737.01,-285.61 838.78,-295.95 899.52,-302.13"/>
<polygon fill="black" stroke="black" points="898.92,-305.58 909.22,-303.11 899.62,-298.62 898.92,-305.58"/>
<text text-anchor="middle" x="828.38" y="-300.24" font-family="Times,serif" font-size="14.00">enter_bios</text>
</g>
<!-- WaitingForOS -->
<g id="node5" class="node">
<title>WaitingForOS</title>
<path fill="white" stroke="black" d="M984.5,-144.07C984.5,-144.07 913.75,-144.07 913.75,-144.07 907.75,-144.07 901.75,-138.07 901.75,-132.07 901.75,-132.07 901.75,-120.07 901.75,-120.07 901.75,-114.07 907.75,-108.07 913.75,-108.07 913.75,-108.07 984.5,-108.07 984.5,-108.07 990.5,-108.07 996.5,-114.07 996.5,-120.07 996.5,-120.07 996.5,-132.07 996.5,-132.07 996.5,-138.07 990.5,-144.07 984.5,-144.07"/>
<text text-anchor="start" x="909.75" y="-119.89" font-family="Times,serif" font-size="14.00">WaitingForOS</text>
</g>
<!-- POST&#45;&gt;WaitingForOS -->
<g id="edge16" class="edge">
<title>POST&#45;&gt;WaitingForOS</title>
<path fill="none" stroke="black" d="M675.07,-259.57C693.94,-232.54 732.95,-182.74 779.25,-157.82 789.09,-152.52 845.24,-142.55 890.13,-135.19"/>
<polygon fill="black" stroke="black" points="890.47,-138.69 899.78,-133.63 889.34,-131.78 890.47,-138.69"/>
<text text-anchor="middle" x="828.38" y="-158.77" font-family="Times,serif" font-size="14.00">enter_os</text>
</g>
<!-- BootLoop -->
<g id="node11" class="node">
<title>BootLoop</title>
<path fill="white" stroke="black" d="M972.88,-417.07C972.88,-417.07 925.38,-417.07 925.38,-417.07 919.38,-417.07 913.38,-411.07 913.38,-405.07 913.38,-405.07 913.38,-393.07 913.38,-393.07 913.38,-387.07 919.38,-381.07 925.38,-381.07 925.38,-381.07 972.88,-381.07 972.88,-381.07 978.88,-381.07 984.88,-387.07 984.88,-393.07 984.88,-393.07 984.88,-405.07 984.88,-405.07 984.88,-411.07 978.88,-417.07 972.88,-417.07"/>
<text text-anchor="start" x="921.38" y="-392.89" font-family="Times,serif" font-size="14.00">BootLoop</text>
</g>
<!-- POST&#45;&gt;BootLoop -->
<g id="edge17" class="edge">
<title>POST&#45;&gt;BootLoop</title>
<path fill="none" stroke="black" d="M686.03,-296.45C708.6,-313.5 744.49,-338.37 779.25,-353.07 820.53,-370.52 834.34,-363.74 877.5,-375.82 885.53,-378.07 894.01,-380.66 902.2,-383.28"/>
<polygon fill="black" stroke="black" points="901.08,-386.6 911.67,-386.38 903.25,-379.95 901.08,-386.6"/>
<text text-anchor="middle" x="828.38" y="-376.77" font-family="Times,serif" font-size="14.00">unsuccessful_post</text>
</g>
<!-- BIOSSetup -->
<g id="node4" class="node">
<title>BIOSSetup</title>
<path fill="white" stroke="black" d="M1215.62,-325.07C1215.62,-325.07 1162.12,-325.07 1162.12,-325.07 1156.12,-325.07 1150.12,-319.07 1150.12,-313.07 1150.12,-313.07 1150.12,-301.07 1150.12,-301.07 1150.12,-295.07 1156.12,-289.07 1162.12,-289.07 1162.12,-289.07 1215.62,-289.07 1215.62,-289.07 1221.62,-289.07 1227.62,-295.07 1227.62,-301.07 1227.62,-301.07 1227.62,-313.07 1227.62,-313.07 1227.62,-319.07 1221.62,-325.07 1215.62,-325.07"/>
<text text-anchor="start" x="1158.12" y="-300.89" font-family="Times,serif" font-size="14.00">BIOSSetup</text>
</g>
<!-- EnterBIOS&#45;&gt;BIOSSetup -->
<g id="edge2" class="edge">
<title>EnterBIOS&#45;&gt;BIOSSetup</title>
<path fill="none" stroke="black" d="M987.53,-307.07C1028.32,-307.07 1093.74,-307.07 1138.66,-307.07"/>
<polygon fill="black" stroke="black" points="1138.38,-310.57 1148.38,-307.07 1138.38,-303.57 1138.38,-310.57"/>
<text text-anchor="middle" x="1065" y="-308.02" font-family="Times,serif" font-size="14.00">start_bios_setup</text>
</g>
<!-- BIOSSetup&#45;&gt;PoweredOff -->
<g id="edge3" class="edge">
<title>BIOSSetup&#45;&gt;PoweredOff</title>
<path fill="none" stroke="black" d="M1167.93,-325.54C1135.97,-353.74 1070.02,-406.31 1002.75,-426.07 897.77,-456.9 571.58,-377.59 445.35,-344.64"/>
<polygon fill="black" stroke="black" points="446.51,-341.32 435.94,-342.17 444.73,-348.1 446.51,-341.32"/>
<text text-anchor="middle" x="828.38" y="-430.51" font-family="Times,serif" font-size="14.00">hard_shutdown</text>
</g>
<!-- BIOSSetup&#45;&gt;POST -->
<g id="edge4" class="edge">
<title>BIOSSetup&#45;&gt;POST</title>
<path fill="none" stroke="black" d="M1149.64,-295.97C1112.49,-285.8 1054.3,-271.49 1002.75,-265.82 893.3,-253.77 762.96,-265.78 700.24,-273.19"/>
<polygon fill="black" stroke="black" points="699.99,-269.69 690.48,-274.37 700.83,-276.64 699.99,-269.69"/>
<text text-anchor="middle" x="949.12" y="-266.77" font-family="Times,serif" font-size="14.00">finished_bios_setup</text>
</g>
<!-- WaitingForOS&#45;&gt;PoweredOff -->
<g id="edge5" class="edge">
<title>WaitingForOS&#45;&gt;PoweredOff</title>
<path fill="none" stroke="black" d="M901.6,-125.18C867.31,-125.53 819.79,-128.14 779.25,-138.07 629.6,-174.72 592.58,-195.51 461.25,-276.07 457.16,-278.58 440.47,-292.38 424.84,-305.53"/>
<polygon fill="black" stroke="black" points="422.9,-302.59 417.51,-311.71 427.41,-307.94 422.9,-302.59"/>
<text text-anchor="middle" x="661.88" y="-216.91" font-family="Times,serif" font-size="14.00">hard_shutdown</text>
</g>
<!-- WaitingForHWInfo -->
<g id="node6" class="node">
<title>WaitingForHWInfo</title>
<path fill="white" stroke="black" d="M1238.5,-137.07C1238.5,-137.07 1139.25,-137.07 1139.25,-137.07 1133.25,-137.07 1127.25,-131.07 1127.25,-125.07 1127.25,-125.07 1127.25,-113.07 1127.25,-113.07 1127.25,-107.07 1133.25,-101.07 1139.25,-101.07 1139.25,-101.07 1238.5,-101.07 1238.5,-101.07 1244.5,-101.07 1250.5,-107.07 1250.5,-113.07 1250.5,-113.07 1250.5,-125.07 1250.5,-125.07 1250.5,-131.07 1244.5,-137.07 1238.5,-137.07"/>
<text text-anchor="start" x="1135.25" y="-112.89" font-family="Times,serif" font-size="14.00">WaitingForHWInfo</text>
</g>
<!-- WaitingForOS&#45;&gt;WaitingForHWInfo -->
<g id="edge6" class="edge">
<title>WaitingForOS&#45;&gt;WaitingForHWInfo</title>
<path fill="none" stroke="black" d="M996.81,-124.7C1030.66,-123.7 1077.07,-122.33 1115.68,-121.2"/>
<polygon fill="black" stroke="black" points="1115.46,-124.7 1125.35,-120.91 1115.25,-117.71 1115.46,-124.7"/>
<text text-anchor="middle" x="1065" y="-124.76" font-family="Times,serif" font-size="14.00">os_booted</text>
</g>
<!-- OCTypeDecision -->
<g id="node7" class="node">
<title>OCTypeDecision</title>
<path fill="white" stroke="black" d="M1478.75,-226.07C1478.75,-226.07 1392.25,-226.07 1392.25,-226.07 1386.25,-226.07 1380.25,-220.07 1380.25,-214.07 1380.25,-214.07 1380.25,-202.07 1380.25,-202.07 1380.25,-196.07 1386.25,-190.07 1392.25,-190.07 1392.25,-190.07 1478.75,-190.07 1478.75,-190.07 1484.75,-190.07 1490.75,-196.07 1490.75,-202.07 1490.75,-202.07 1490.75,-214.07 1490.75,-214.07 1490.75,-220.07 1484.75,-226.07 1478.75,-226.07"/>
<text text-anchor="start" x="1388.25" y="-201.89" font-family="Times,serif" font-size="14.00">OCTypeDecision</text>
</g>
<!-- WaitingForHWInfo&#45;&gt;OCTypeDecision -->
<g id="edge18" class="edge">
<title>WaitingForHWInfo&#45;&gt;OCTypeDecision</title>
<path fill="none" stroke="black" d="M1240.56,-137.51C1279.1,-151.53 1332.29,-170.88 1373.22,-185.77"/>
<polygon fill="black" stroke="black" points="1371.86,-189.01 1382.46,-189.14 1374.26,-182.43 1371.86,-189.01"/>
<text text-anchor="middle" x="1315.38" y="-182.72" font-family="Times,serif" font-size="14.00">hwinfo_available</text>
</g>
<!-- RoughMulticoreUndervolt -->
<g id="node8" class="node">
<title>RoughMulticoreUndervolt</title>
<path fill="white" stroke="black" d="M1834.5,-277.07C1834.5,-277.07 1697,-277.07 1697,-277.07 1691,-277.07 1685,-271.07 1685,-265.07 1685,-265.07 1685,-253.07 1685,-253.07 1685,-247.07 1691,-241.07 1697,-241.07 1697,-241.07 1834.5,-241.07 1834.5,-241.07 1840.5,-241.07 1846.5,-247.07 1846.5,-253.07 1846.5,-253.07 1846.5,-265.07 1846.5,-265.07 1846.5,-271.07 1840.5,-277.07 1834.5,-277.07"/>
<text text-anchor="start" x="1693" y="-252.89" font-family="Times,serif" font-size="14.00">RoughMulticoreUndervolt</text>
</g>
<!-- OCTypeDecision&#45;&gt;RoughMulticoreUndervolt -->
<g id="edge7" class="edge">
<title>OCTypeDecision&#45;&gt;RoughMulticoreUndervolt</title>
<path fill="none" stroke="black" d="M1491.03,-210.75C1537.67,-213.69 1606.43,-219.57 1665.5,-230.82 1675.22,-232.67 1685.36,-235.04 1695.29,-237.61"/>
<polygon fill="black" stroke="black" points="1694.36,-240.98 1704.92,-240.2 1696.17,-234.22 1694.36,-240.98"/>
<text text-anchor="middle" x="1587.12" y="-231.77" font-family="Times,serif" font-size="14.00">rough_multicore_undervolt</text>
</g>
<!-- PreciseMulticoreUndervolt -->
<g id="node9" class="node">
<title>PreciseMulticoreUndervolt</title>
<path fill="white" stroke="black" d="M1836,-178.07C1836,-178.07 1695.5,-178.07 1695.5,-178.07 1689.5,-178.07 1683.5,-172.07 1683.5,-166.07 1683.5,-166.07 1683.5,-154.07 1683.5,-154.07 1683.5,-148.07 1689.5,-142.07 1695.5,-142.07 1695.5,-142.07 1836,-142.07 1836,-142.07 1842,-142.07 1848,-148.07 1848,-154.07 1848,-154.07 1848,-166.07 1848,-166.07 1848,-172.07 1842,-178.07 1836,-178.07"/>
<text text-anchor="start" x="1691.5" y="-153.89" font-family="Times,serif" font-size="14.00">PreciseMulticoreUndervolt</text>
</g>
<!-- OCTypeDecision&#45;&gt;PreciseMulticoreUndervolt -->
<g id="edge8" class="edge">
<title>OCTypeDecision&#45;&gt;PreciseMulticoreUndervolt</title>
<path fill="none" stroke="black" d="M1490.87,-196.96C1496.9,-195.84 1502.95,-194.77 1508.75,-193.82 1562.72,-184.95 1623.38,-176.87 1672.11,-170.84"/>
<polygon fill="black" stroke="black" points="1672.27,-174.35 1681.77,-169.65 1671.42,-167.4 1672.27,-174.35"/>
<text text-anchor="middle" x="1587.12" y="-194.77" font-family="Times,serif" font-size="14.00">precise_multicore_undervolt</text>
</g>
<!-- SingleCoreTuning -->
<g id="node10" class="node">
<title>SingleCoreTuning</title>
<path fill="white" stroke="black" d="M1811.25,-468.07C1811.25,-468.07 1720.25,-468.07 1720.25,-468.07 1714.25,-468.07 1708.25,-462.07 1708.25,-456.07 1708.25,-456.07 1708.25,-444.07 1708.25,-444.07 1708.25,-438.07 1714.25,-432.07 1720.25,-432.07 1720.25,-432.07 1811.25,-432.07 1811.25,-432.07 1817.25,-432.07 1823.25,-438.07 1823.25,-444.07 1823.25,-444.07 1823.25,-456.07 1823.25,-456.07 1823.25,-462.07 1817.25,-468.07 1811.25,-468.07"/>
<text text-anchor="start" x="1716.25" y="-443.89" font-family="Times,serif" font-size="14.00">SingleCoreTuning</text>
</g>
<!-- OCTypeDecision&#45;&gt;SingleCoreTuning -->
<g id="edge9" class="edge">
<title>OCTypeDecision&#45;&gt;SingleCoreTuning</title>
<path fill="none" stroke="black" d="M1461.44,-226.46C1519.62,-269.35 1664.39,-376.08 1730.66,-424.94"/>
<polygon fill="black" stroke="black" points="1728.5,-427.69 1738.63,-430.81 1732.66,-422.06 1728.5,-427.69"/>
<text text-anchor="middle" x="1587.12" y="-372.74" font-family="Times,serif" font-size="14.00">single_core_tuning</text>
</g>
<!-- RoughMulticoreUndervolt&#45;&gt;PoweredOff -->
<g id="edge10" class="edge">
<title>RoughMulticoreUndervolt&#45;&gt;PoweredOff</title>
<path fill="none" stroke="black" d="M1757.07,-277.52C1743.54,-307.33 1712.4,-365.22 1665.5,-390.07 1612.58,-418.11 1186.67,-410.6 1127.25,-418.07 1071.25,-425.11 1058.71,-435.75 1002.75,-443.07 896.12,-457.02 868.74,-454.73 761.25,-458.07 627.56,-462.22 570.49,-511.26 461.25,-434.07 435.14,-415.62 416.77,-383.36 406.06,-359.85"/>
<polygon fill="black" stroke="black" points="409.33,-358.6 402.14,-350.81 402.91,-361.38 409.33,-358.6"/>
<text text-anchor="middle" x="1065" y="-441.28" font-family="Times,serif" font-size="14.00">hard_shutdown</text>
</g>
<!-- RoughMulticoreUndervolt&#45;&gt;POST -->
<g id="edge11" class="edge">
<title>RoughMulticoreUndervolt&#45;&gt;POST</title>
<path fill="none" stroke="black" d="M1684.66,-258.79C1545.83,-258.32 1251.46,-257.4 1002.75,-257.07 903.42,-256.94 878.19,-248.21 779.25,-257.07 752.61,-259.45 722.94,-264.85 700.23,-269.58"/>
<polygon fill="black" stroke="black" points="699.57,-266.14 690.52,-271.65 701.03,-272.98 699.57,-266.14"/>
<text text-anchor="middle" x="1188.88" y="-258.48" font-family="Times,serif" font-size="14.00">reboot</text>
</g>
<!-- PreciseMulticoreUndervolt&#45;&gt;PoweredOff -->
<g id="edge12" class="edge">
<title>PreciseMulticoreUndervolt&#45;&gt;PoweredOff</title>
<path fill="none" stroke="black" d="M1737.58,-141.75C1683.02,-106.8 1555.23,-34.07 1436.5,-34.07 827.38,-34.07 827.38,-34.07 827.38,-34.07 709.17,-34.07 662.94,4.26 562.5,-58.07 489.39,-103.44 495.26,-144.04 461.25,-223.07 449.06,-251.39 459.78,-264.04 443.25,-290.07 439.77,-295.56 435.32,-300.69 430.53,-305.34"/>
<polygon fill="black" stroke="black" points="428.54,-302.42 423.4,-311.69 433.19,-307.65 428.54,-302.42"/>
<text text-anchor="middle" x="1065" y="-35.02" font-family="Times,serif" font-size="14.00">hard_shutdown</text>
</g>
<!-- PreciseMulticoreUndervolt&#45;&gt;POST -->
<g id="edge13" class="edge">
<title>PreciseMulticoreUndervolt&#45;&gt;POST</title>
<path fill="none" stroke="black" d="M1683.38,-162.44C1584.97,-165.75 1414.35,-172.88 1268.5,-186.07 1050.15,-205.82 994.7,-208.5 779.25,-249.07 752.47,-254.11 722.65,-261.58 699.9,-267.67"/>
<polygon fill="black" stroke="black" points="699.22,-264.23 690.49,-270.23 701.06,-270.99 699.22,-264.23"/>
<text text-anchor="middle" x="1188.88" y="-199.62" font-family="Times,serif" font-size="14.00">reboot</text>
</g>
<!-- SingleCoreTuning&#45;&gt;PoweredOff -->
<g id="edge23" class="edge">
<title>SingleCoreTuning&#45;&gt;PoweredOff</title>
<path fill="none" stroke="black" d="M1712.63,-468.54C1648.51,-489.58 1535.91,-521.07 1436.5,-521.07 660.88,-521.07 660.88,-521.07 660.88,-521.07 568.96,-521.07 532.13,-525.58 461.25,-467.07 428,-439.62 410.06,-391.51 401.46,-360.48"/>
<polygon fill="black" stroke="black" points="404.89,-359.77 398.99,-350.97 398.11,-361.53 404.89,-359.77"/>
<text text-anchor="middle" x="1065" y="-522.02" font-family="Times,serif" font-size="14.00">hard_shutdown</text>
</g>
<!-- SingleCoreTuning&#45;&gt;POST -->
<g id="edge24" class="edge">
<title>SingleCoreTuning&#45;&gt;POST</title>
<path fill="none" stroke="black" d="M1707.81,-446.81C1555.28,-437.12 1125.54,-403.62 779.25,-317.07 752.25,-310.32 722.5,-300.3 699.84,-292.11"/>
<polygon fill="black" stroke="black" points="701.35,-288.94 690.75,-288.78 698.94,-295.51 701.35,-288.94"/>
<text text-anchor="middle" x="1188.88" y="-402.53" font-family="Times,serif" font-size="14.00">reboot</text>
</g>
<!-- BootLoop&#45;&gt;PoweredOff -->
<g id="edge19" class="edge">
<title>BootLoop&#45;&gt;PoweredOff</title>
<path fill="none" stroke="black" d="M912.98,-416.02C901.89,-420.54 889.42,-424.79 877.5,-427.07 786.56,-444.44 544.18,-450.23 461.25,-409.07 439.33,-398.19 421.77,-376.49 410.21,-358.73"/>
<polygon fill="black" stroke="black" points="413.45,-357.32 405.21,-350.65 407.5,-361 413.45,-357.32"/>
<text text-anchor="middle" x="661.88" y="-441.21" font-family="Times,serif" font-size="14.00">trigger_cmos_reset | hard_shutdown</text>
</g>
<!-- IdleWaitingForInput -->
<g id="node12" class="node">
<title>IdleWaitingForInput</title>
<path fill="darksalmon" stroke="red" d="M119,-279.07C119,-279.07 16,-279.07 16,-279.07 10,-279.07 4,-273.07 4,-267.07 4,-267.07 4,-255.07 4,-255.07 4,-249.07 10,-243.07 16,-243.07 16,-243.07 119,-243.07 119,-243.07 125,-243.07 131,-249.07 131,-255.07 131,-255.07 131,-267.07 131,-267.07 131,-273.07 125,-279.07 119,-279.07"/>
<path fill="none" stroke="red" d="M123,-283.07C123,-283.07 12,-283.07 12,-283.07 6,-283.07 0,-277.07 0,-271.07 0,-271.07 0,-251.07 0,-251.07 0,-245.07 6,-239.07 12,-239.07 12,-239.07 123,-239.07 123,-239.07 129,-239.07 135,-245.07 135,-251.07 135,-251.07 135,-271.07 135,-271.07 135,-277.07 129,-283.07 123,-283.07"/>
<text text-anchor="start" x="12" y="-254.89" font-family="Times,serif" font-size="14.00">IdleWaitingForInput</text>
</g>
<!-- IdleWaitingForInput&#45;&gt;PoweredOff -->
<g id="edge20" class="edge">
<title>IdleWaitingForInput&#45;&gt;PoweredOff</title>
<path fill="none" stroke="black" d="M135.29,-275.49C196.69,-288.74 286.38,-308.11 342.07,-320.13"/>
<polygon fill="black" stroke="black" points="341.09,-323.5 351.6,-322.19 342.56,-316.65 341.09,-323.5"/>
<text text-anchor="middle" x="239.62" y="-316.9" font-family="Times,serif" font-size="14.00">hard_shutdown | soft_shutdown</text>
</g>
<!-- IdleWaitingForInput&#45;&gt;POST -->
<g id="edge21" class="edge">
<title>IdleWaitingForInput&#45;&gt;POST</title>
<path fill="none" stroke="black" d="M135.3,-262.99C260.06,-266.57 524.71,-274.16 623.04,-276.98"/>
<polygon fill="black" stroke="black" points="622.85,-280.48 632.94,-277.27 623.05,-273.48 622.85,-280.48"/>
<text text-anchor="middle" x="393.75" y="-272.76" font-family="Times,serif" font-size="14.00">power_on | reboot</text>
</g>
<!-- IdleWaitingForInput&#45;&gt;WaitingForHWInfo -->
<g id="edge22" class="edge">
<title>IdleWaitingForInput&#45;&gt;WaitingForHWInfo</title>
<path fill="none" stroke="black" d="M89.75,-238.88C138.43,-190.54 263.81,-80.07 392.75,-80.07 392.75,-80.07 392.75,-80.07 950.12,-80.07 1006.27,-80.07 1068.91,-90.79 1115.79,-100.99"/>
<polygon fill="black" stroke="black" points="1114.75,-104.35 1125.27,-103.1 1116.27,-97.52 1114.75,-104.35"/>
<text text-anchor="middle" x="661.88" y="-81.02" font-family="Times,serif" font-size="14.00">begin_automation</text>
</g>
</g>
</svg>
