<?xml version="1.0" encoding="UTF-8" standalone="no"?>
<!DOCTYPE svg PUBLIC "-//W3C//DTD SVG 1.1//EN"
 "http://www.w3.org/Graphics/SVG/1.1/DTD/svg11.dtd">
<!-- Generated by graphviz version 12.2.1 (0)
 -->
<!-- Pages: 1 -->
<svg width="1745pt" height="637pt"
 viewBox="0.00 0.00 1744.50 636.50" xmlns="http://www.w3.org/2000/svg" xmlns:xlink="http://www.w3.org/1999/xlink">
<g id="graph0" class="graph" transform="scale(1 1) rotate(0) translate(4 632.5)">
<polygon fill="white" stroke="none" points="-4,4 -4,-632.5 1740.5,-632.5 1740.5,4 -4,4"/>
<text text-anchor="middle" x="868.25" y="-4.95" font-family="Times,serif" font-size="14.00">State Machine</text>
<!-- PoweredOff -->
<g id="node1" class="node">
<title>PoweredOff</title>
<path fill="white" stroke="black" d="M69.25,-258.25C69.25,-258.25 12,-258.25 12,-258.25 6,-258.25 0,-252.25 0,-246.25 0,-246.25 0,-234.25 0,-234.25 0,-228.25 6,-222.25 12,-222.25 12,-222.25 69.25,-222.25 69.25,-222.25 75.25,-222.25 81.25,-228.25 81.25,-234.25 81.25,-234.25 81.25,-246.25 81.25,-246.25 81.25,-252.25 75.25,-258.25 69.25,-258.25"/>
<text text-anchor="start" x="8" y="-234.07" font-family="Times,serif" font-size="14.00">PoweredOff</text>
</g>
<!-- POST -->
<g id="node2" class="node">
<title>POST</title>
<path fill="white" stroke="black" d="M268,-295.25C268,-295.25 238,-295.25 238,-295.25 232,-295.25 226,-289.25 226,-283.25 226,-283.25 226,-271.25 226,-271.25 226,-265.25 232,-259.25 238,-259.25 238,-259.25 268,-259.25 268,-259.25 274,-259.25 280,-265.25 280,-271.25 280,-271.25 280,-283.25 280,-283.25 280,-289.25 274,-295.25 268,-295.25"/>
<text text-anchor="start" x="234" y="-271.07" font-family="Times,serif" font-size="14.00">POST</text>
</g>
<!-- PoweredOff&#45;&gt;POST -->
<g id="edge1" class="edge">
<title>PoweredOff&#45;&gt;POST</title>
<path fill="none" stroke="black" d="M81.48,-251.24C87.41,-252.7 93.47,-254.09 99.25,-255.25 138.26,-263.11 183.42,-269.26 214.46,-273.03"/>
<polygon fill="black" stroke="black" points="213.78,-276.47 224.13,-274.18 214.61,-269.52 213.78,-276.47"/>
<text text-anchor="middle" x="140.88" y="-269.8" font-family="Times,serif" font-size="14.00">power_on</text>
</g>
<!-- POST&#45;&gt;PoweredOff -->
<g id="edge15" class="edge">
<title>POST&#45;&gt;PoweredOff</title>
<path fill="none" stroke="black" d="M227.68,-258.92C214.94,-250.46 198.66,-241.34 182.5,-237 153.45,-229.2 119.82,-229.64 92.7,-232.2"/>
<polygon fill="black" stroke="black" points="92.58,-228.7 83.01,-233.25 93.33,-235.66 92.58,-228.7"/>
<text text-anchor="middle" x="140.88" y="-237.95" font-family="Times,serif" font-size="14.00">hard_shutdown</text>
</g>
<!-- EnterBIOS -->
<g id="node3" class="node">
<title>EnterBIOS</title>
<path fill="white" stroke="black" d="M594.38,-408.25C594.38,-408.25 542.38,-408.25 542.38,-408.25 536.38,-408.25 530.38,-402.25 530.38,-396.25 530.38,-396.25 530.38,-384.25 530.38,-384.25 530.38,-378.25 536.38,-372.25 542.38,-372.25 542.38,-372.25 594.38,-372.25 594.38,-372.25 600.38,-372.25 606.38,-378.25 606.38,-384.25 606.38,-384.25 606.38,-396.25 606.38,-396.25 606.38,-402.25 600.38,-408.25 594.38,-408.25"/>
<text text-anchor="start" x="538.38" y="-384.07" font-family="Times,serif" font-size="14.00">EnterBIOS</text>
</g>
<!-- POST&#45;&gt;EnterBIOS -->
<g id="edge16" class="edge">
<title>POST&#45;&gt;EnterBIOS</title>
<path fill="none" stroke="black" d="M264.12,-295.51C275.77,-314.61 296.77,-343.79 323.5,-358.25 384.82,-391.44 467.13,-395.31 518.71,-393.76"/>
<polygon fill="black" stroke="black" points="518.81,-397.26 528.66,-393.37 518.53,-390.26 518.81,-397.26"/>
<text text-anchor="middle" x="410.12" y="-394.95" font-family="Times,serif" font-size="14.00">enter_bios</text>
</g>
<!-- IdleWaitingForInput -->
<g id="node5" class="node">
<title>IdleWaitingForInput</title>
<path fill="darksalmon" stroke="red" d="M865.5,-304.25C865.5,-304.25 762.5,-304.25 762.5,-304.25 756.5,-304.25 750.5,-298.25 750.5,-292.25 750.5,-292.25 750.5,-280.25 750.5,-280.25 750.5,-274.25 756.5,-268.25 762.5,-268.25 762.5,-268.25 865.5,-268.25 865.5,-268.25 871.5,-268.25 877.5,-274.25 877.5,-280.25 877.5,-280.25 877.5,-292.25 877.5,-292.25 877.5,-298.25 871.5,-304.25 865.5,-304.25"/>
<path fill="none" stroke="red" d="M869.5,-308.25C869.5,-308.25 758.5,-308.25 758.5,-308.25 752.5,-308.25 746.5,-302.25 746.5,-296.25 746.5,-296.25 746.5,-276.25 746.5,-276.25 746.5,-270.25 752.5,-264.25 758.5,-264.25 758.5,-264.25 869.5,-264.25 869.5,-264.25 875.5,-264.25 881.5,-270.25 881.5,-276.25 881.5,-276.25 881.5,-296.25 881.5,-296.25 881.5,-302.25 875.5,-308.25 869.5,-308.25"/>
<text text-anchor="start" x="758.5" y="-280.07" font-family="Times,serif" font-size="14.00">IdleWaitingForInput</text>
</g>
<!-- POST&#45;&gt;IdleWaitingForInput -->
<g id="edge19" class="edge">
<title>POST&#45;&gt;IdleWaitingForInput</title>
<path fill="none" stroke="black" d="M280.21,-277.67C360.88,-278.97 607.65,-282.94 735.06,-285"/>
<polygon fill="black" stroke="black" points="734.69,-288.49 744.75,-285.15 734.8,-281.49 734.69,-288.49"/>
<text text-anchor="middle" x="568.38" y="-284.03" font-family="Times,serif" font-size="14.00">go_idle</text>
</g>
<!-- WaitingForOS -->
<g id="node6" class="node">
<title>WaitingForOS</title>
<path fill="white" stroke="black" d="M603.75,-124.25C603.75,-124.25 533,-124.25 533,-124.25 527,-124.25 521,-118.25 521,-112.25 521,-112.25 521,-100.25 521,-100.25 521,-94.25 527,-88.25 533,-88.25 533,-88.25 603.75,-88.25 603.75,-88.25 609.75,-88.25 615.75,-94.25 615.75,-100.25 615.75,-100.25 615.75,-112.25 615.75,-112.25 615.75,-118.25 609.75,-124.25 603.75,-124.25"/>
<text text-anchor="start" x="529" y="-100.08" font-family="Times,serif" font-size="14.00">WaitingForOS</text>
</g>
<!-- POST&#45;&gt;WaitingForOS -->
<g id="edge17" class="edge">
<title>POST&#45;&gt;WaitingForOS</title>
<path fill="none" stroke="black" d="M263.64,-258.89C280.46,-227.13 314.28,-164.67 323.5,-158 352.68,-136.9 446.96,-121.37 509.38,-113.08"/>
<polygon fill="black" stroke="black" points="509.68,-116.57 519.14,-111.81 508.77,-109.63 509.68,-116.57"/>
<text text-anchor="middle" x="410.12" y="-158.95" font-family="Times,serif" font-size="14.00">wait_os</text>
</g>
<!-- BootLoop -->
<g id="node12" class="node">
<title>BootLoop</title>
<path fill="white" stroke="black" d="M592.12,-178.25C592.12,-178.25 544.62,-178.25 544.62,-178.25 538.62,-178.25 532.62,-172.25 532.62,-166.25 532.62,-166.25 532.62,-154.25 532.62,-154.25 532.62,-148.25 538.62,-142.25 544.62,-142.25 544.62,-142.25 592.12,-142.25 592.12,-142.25 598.12,-142.25 604.12,-148.25 604.12,-154.25 604.12,-154.25 604.12,-166.25 604.12,-166.25 604.12,-172.25 598.12,-178.25 592.12,-178.25"/>
<text text-anchor="start" x="540.62" y="-154.07" font-family="Times,serif" font-size="14.00">BootLoop</text>
</g>
<!-- POST&#45;&gt;BootLoop -->
<g id="edge18" class="edge">
<title>POST&#45;&gt;BootLoop</title>
<path fill="none" stroke="black" d="M264.71,-258.92C276.57,-240.46 297.49,-212.79 323.5,-199 392.11,-162.62 420.3,-189.9 496.75,-176.25 504.66,-174.84 513.02,-173.13 521.11,-171.37"/>
<polygon fill="black" stroke="black" points="521.83,-174.8 530.82,-169.2 520.3,-167.97 521.83,-174.8"/>
<text text-anchor="middle" x="410.12" y="-199.95" font-family="Times,serif" font-size="14.00">unsuccessful_post</text>
</g>
<!-- BIOSSetup -->
<g id="node4" class="node">
<title>BIOSSetup</title>
<path fill="white" stroke="black" d="M840.75,-462.25C840.75,-462.25 787.25,-462.25 787.25,-462.25 781.25,-462.25 775.25,-456.25 775.25,-450.25 775.25,-450.25 775.25,-438.25 775.25,-438.25 775.25,-432.25 781.25,-426.25 787.25,-426.25 787.25,-426.25 840.75,-426.25 840.75,-426.25 846.75,-426.25 852.75,-432.25 852.75,-438.25 852.75,-438.25 852.75,-450.25 852.75,-450.25 852.75,-456.25 846.75,-462.25 840.75,-462.25"/>
<text text-anchor="start" x="783.25" y="-438.07" font-family="Times,serif" font-size="14.00">BIOSSetup</text>
</g>
<!-- EnterBIOS&#45;&gt;BIOSSetup -->
<g id="edge2" class="edge">
<title>EnterBIOS&#45;&gt;BIOSSetup</title>
<path fill="none" stroke="black" d="M606.69,-394.55C639.16,-398.7 687.33,-405.86 728.5,-416 740.22,-418.89 752.65,-422.64 764.27,-426.46"/>
<polygon fill="black" stroke="black" points="763.08,-429.76 773.67,-429.64 765.32,-423.12 763.08,-429.76"/>
<text text-anchor="middle" x="684.25" y="-416.95" font-family="Times,serif" font-size="14.00">start_bios_setup</text>
</g>
<!-- EnterBIOS&#45;&gt;IdleWaitingForInput -->
<g id="edge3" class="edge">
<title>EnterBIOS&#45;&gt;IdleWaitingForInput</title>
<path fill="none" stroke="black" d="M606.64,-374.34C644.73,-358.08 704.58,-332.53 750.03,-313.13"/>
<polygon fill="black" stroke="black" points="751.16,-316.45 758.99,-309.31 748.42,-310.01 751.16,-316.45"/>
<text text-anchor="middle" x="684.25" y="-360.47" font-family="Times,serif" font-size="14.00">go_idle</text>
</g>
<!-- BIOSSetup&#45;&gt;PoweredOff -->
<g id="edge4" class="edge">
<title>BIOSSetup&#45;&gt;PoweredOff</title>
<path fill="none" stroke="black" d="M774.97,-454.2C760.51,-457.61 743.84,-461.11 728.5,-463.25 550.01,-488.17 491.43,-508.67 323.5,-443.25 217.43,-401.93 114.54,-311.19 67.8,-266.36"/>
<polygon fill="black" stroke="black" points="70.44,-264.05 60.83,-259.6 65.57,-269.07 70.44,-264.05"/>
<text text-anchor="middle" x="410.12" y="-487.27" font-family="Times,serif" font-size="14.00">hard_shutdown</text>
</g>
<!-- BIOSSetup&#45;&gt;POST -->
<g id="edge5" class="edge">
<title>BIOSSetup&#45;&gt;POST</title>
<path fill="none" stroke="black" d="M774.91,-446.46C673.09,-451.63 397.39,-460.7 323.5,-412.25 286.78,-388.18 268.43,-338.29 260.08,-306.36"/>
<polygon fill="black" stroke="black" points="263.56,-305.86 257.8,-296.97 256.75,-307.51 263.56,-305.86"/>
<text text-anchor="middle" x="568.38" y="-451.64" font-family="Times,serif" font-size="14.00">finished_bios_setup</text>
</g>
<!-- IdleWaitingForInput&#45;&gt;PoweredOff -->
<g id="edge22" class="edge">
<title>IdleWaitingForInput&#45;&gt;PoweredOff</title>
<path fill="none" stroke="black" d="M782.75,-263.83C770.97,-254.56 757.65,-243.39 746.5,-232.25 684.48,-170.29 701.17,-116.9 622,-79.25 452.13,1.52 376.7,-51.42 200.5,-117.25 153.49,-134.82 138.25,-135.67 99.25,-167.25 83.5,-180 69.34,-197.8 59,-212.62"/>
<polygon fill="black" stroke="black" points="56.31,-210.35 53.63,-220.6 62.12,-214.27 56.31,-210.35"/>
<text text-anchor="middle" x="410.12" y="-70.19" font-family="Times,serif" font-size="14.00">hard_shutdown | soft_shutdown</text>
</g>
<!-- IdleWaitingForInput&#45;&gt;POST -->
<g id="edge23" class="edge">
<title>IdleWaitingForInput&#45;&gt;POST</title>
<path fill="none" stroke="black" d="M746,-276.08C709.45,-271.04 663.35,-265.51 622,-263 501.29,-255.68 358.06,-266.96 291.49,-273.34"/>
<polygon fill="black" stroke="black" points="291.46,-269.83 281.85,-274.29 292.15,-276.8 291.46,-269.83"/>
<text text-anchor="middle" x="568.38" y="-263.95" font-family="Times,serif" font-size="14.00">reboot</text>
</g>
<!-- WaitingForHWInfo -->
<g id="node7" class="node">
<title>WaitingForHWInfo</title>
<path fill="white" stroke="black" d="M1127,-304.25C1127,-304.25 1027.75,-304.25 1027.75,-304.25 1021.75,-304.25 1015.75,-298.25 1015.75,-292.25 1015.75,-292.25 1015.75,-280.25 1015.75,-280.25 1015.75,-274.25 1021.75,-268.25 1027.75,-268.25 1027.75,-268.25 1127,-268.25 1127,-268.25 1133,-268.25 1139,-274.25 1139,-280.25 1139,-280.25 1139,-292.25 1139,-292.25 1139,-298.25 1133,-304.25 1127,-304.25"/>
<text text-anchor="start" x="1023.75" y="-280.07" font-family="Times,serif" font-size="14.00">WaitingForHWInfo</text>
</g>
<!-- IdleWaitingForInput&#45;&gt;WaitingForHWInfo -->
<g id="edge24" class="edge">
<title>IdleWaitingForInput&#45;&gt;WaitingForHWInfo</title>
<path fill="none" stroke="black" d="M881.97,-286.25C919.42,-286.25 966.1,-286.25 1004.33,-286.25"/>
<polygon fill="black" stroke="black" points="1003.88,-289.75 1013.88,-286.25 1003.88,-282.75 1003.88,-289.75"/>
<text text-anchor="middle" x="948.62" y="-287.2" font-family="Times,serif" font-size="14.00">begin_automation</text>
</g>
<!-- WaitingForOS&#45;&gt;PoweredOff -->
<g id="edge6" class="edge">
<title>WaitingForOS&#45;&gt;PoweredOff</title>
<path fill="none" stroke="black" d="M520.53,-103.99C471.03,-102.62 390.94,-103.29 323.5,-117.25 266.23,-129.11 255.1,-143.04 200.5,-164 155.44,-181.3 142.27,-181.38 99.25,-203.25 91.96,-206.95 84.43,-211.34 77.32,-215.77"/>
<polygon fill="black" stroke="black" points="75.74,-212.62 69.21,-220.96 79.52,-218.52 75.74,-212.62"/>
<text text-anchor="middle" x="253" y="-164.95" font-family="Times,serif" font-size="14.00">hard_shutdown</text>
</g>
<!-- WaitingForOS&#45;&gt;WaitingForHWInfo -->
<g id="edge7" class="edge">
<title>WaitingForOS&#45;&gt;WaitingForHWInfo</title>
<path fill="none" stroke="black" d="M616.16,-122.86C707.79,-155.39 910.9,-227.5 1013.89,-264.07"/>
<polygon fill="black" stroke="black" points="1012.42,-267.26 1023.01,-267.31 1014.76,-260.66 1012.42,-267.26"/>
<text text-anchor="middle" x="814" y="-215.09" font-family="Times,serif" font-size="14.00">os_booted</text>
</g>
<!-- OCTypeDecision -->
<g id="node8" class="node">
<title>OCTypeDecision</title>
<path fill="white" stroke="black" d="M1367.25,-307.25C1367.25,-307.25 1280.75,-307.25 1280.75,-307.25 1274.75,-307.25 1268.75,-301.25 1268.75,-295.25 1268.75,-295.25 1268.75,-283.25 1268.75,-283.25 1268.75,-277.25 1274.75,-271.25 1280.75,-271.25 1280.75,-271.25 1367.25,-271.25 1367.25,-271.25 1373.25,-271.25 1379.25,-277.25 1379.25,-283.25 1379.25,-283.25 1379.25,-295.25 1379.25,-295.25 1379.25,-301.25 1373.25,-307.25 1367.25,-307.25"/>
<text text-anchor="start" x="1276.75" y="-283.07" font-family="Times,serif" font-size="14.00">OCTypeDecision</text>
</g>
<!-- WaitingForHWInfo&#45;&gt;OCTypeDecision -->
<g id="edge20" class="edge">
<title>WaitingForHWInfo&#45;&gt;OCTypeDecision</title>
<path fill="none" stroke="black" d="M1139.47,-287C1175.38,-287.44 1220.78,-288 1257.43,-288.45"/>
<polygon fill="black" stroke="black" points="1256.95,-291.94 1267,-288.56 1257.04,-284.94 1256.95,-291.94"/>
<text text-anchor="middle" x="1203.88" y="-289.31" font-family="Times,serif" font-size="14.00">hwinfo_available</text>
</g>
<!-- RoughMulticoreUndervolt -->
<g id="node9" class="node">
<title>RoughMulticoreUndervolt</title>
<path fill="white" stroke="black" d="M1723,-536.25C1723,-536.25 1585.5,-536.25 1585.5,-536.25 1579.5,-536.25 1573.5,-530.25 1573.5,-524.25 1573.5,-524.25 1573.5,-512.25 1573.5,-512.25 1573.5,-506.25 1579.5,-500.25 1585.5,-500.25 1585.5,-500.25 1723,-500.25 1723,-500.25 1729,-500.25 1735,-506.25 1735,-512.25 1735,-512.25 1735,-524.25 1735,-524.25 1735,-530.25 1729,-536.25 1723,-536.25"/>
<text text-anchor="start" x="1581.5" y="-512.08" font-family="Times,serif" font-size="14.00">RoughMulticoreUndervolt</text>
</g>
<!-- OCTypeDecision&#45;&gt;RoughMulticoreUndervolt -->
<g id="edge8" class="edge">
<title>OCTypeDecision&#45;&gt;RoughMulticoreUndervolt</title>
<path fill="none" stroke="black" d="M1351.31,-307.6C1409.89,-348.47 1551.14,-447.01 1617.58,-493.36"/>
<polygon fill="black" stroke="black" points="1615.37,-496.09 1625.58,-498.94 1619.38,-490.35 1615.37,-496.09"/>
<text text-anchor="middle" x="1475.62" y="-445.13" font-family="Times,serif" font-size="14.00">rough_multicore_undervolt</text>
</g>
<!-- PreciseMulticoreUndervolt -->
<g id="node10" class="node">
<title>PreciseMulticoreUndervolt</title>
<path fill="white" stroke="black" d="M1724.5,-362.25C1724.5,-362.25 1584,-362.25 1584,-362.25 1578,-362.25 1572,-356.25 1572,-350.25 1572,-350.25 1572,-338.25 1572,-338.25 1572,-332.25 1578,-326.25 1584,-326.25 1584,-326.25 1724.5,-326.25 1724.5,-326.25 1730.5,-326.25 1736.5,-332.25 1736.5,-338.25 1736.5,-338.25 1736.5,-350.25 1736.5,-350.25 1736.5,-356.25 1730.5,-362.25 1724.5,-362.25"/>
<text text-anchor="start" x="1580" y="-338.07" font-family="Times,serif" font-size="14.00">PreciseMulticoreUndervolt</text>
</g>
<!-- OCTypeDecision&#45;&gt;PreciseMulticoreUndervolt -->
<g id="edge9" class="edge">
<title>OCTypeDecision&#45;&gt;PreciseMulticoreUndervolt</title>
<path fill="none" stroke="black" d="M1379.52,-293.13C1426.16,-297.05 1494.92,-304.22 1554,-316 1563.57,-317.91 1573.57,-320.28 1583.37,-322.84"/>
<polygon fill="black" stroke="black" points="1582.3,-326.18 1592.86,-325.4 1584.12,-319.42 1582.3,-326.18"/>
<text text-anchor="middle" x="1475.62" y="-316.95" font-family="Times,serif" font-size="14.00">precise_multicore_undervolt</text>
</g>
<!-- SingleCoreTuning -->
<g id="node11" class="node">
<title>SingleCoreTuning</title>
<path fill="white" stroke="black" d="M1699.75,-195.25C1699.75,-195.25 1608.75,-195.25 1608.75,-195.25 1602.75,-195.25 1596.75,-189.25 1596.75,-183.25 1596.75,-183.25 1596.75,-171.25 1596.75,-171.25 1596.75,-165.25 1602.75,-159.25 1608.75,-159.25 1608.75,-159.25 1699.75,-159.25 1699.75,-159.25 1705.75,-159.25 1711.75,-165.25 1711.75,-171.25 1711.75,-171.25 1711.75,-183.25 1711.75,-183.25 1711.75,-189.25 1705.75,-195.25 1699.75,-195.25"/>
<text text-anchor="start" x="1604.75" y="-171.07" font-family="Times,serif" font-size="14.00">SingleCoreTuning</text>
</g>
<!-- OCTypeDecision&#45;&gt;SingleCoreTuning -->
<g id="edge10" class="edge">
<title>OCTypeDecision&#45;&gt;SingleCoreTuning</title>
<path fill="none" stroke="black" d="M1379.2,-270.76C1436.66,-251.15 1527.39,-220.19 1588.56,-199.32"/>
<polygon fill="black" stroke="black" points="1589.47,-202.71 1597.81,-196.17 1587.21,-196.08 1589.47,-202.71"/>
<text text-anchor="middle" x="1475.62" y="-263.13" font-family="Times,serif" font-size="14.00">single_core_tuning</text>
</g>
<!-- RoughMulticoreUndervolt&#45;&gt;PoweredOff -->
<g id="edge11" class="edge">
<title>RoughMulticoreUndervolt&#45;&gt;PoweredOff</title>
<path fill="none" stroke="black" d="M1616.37,-536.53C1556.69,-564.39 1434.55,-614.25 1325,-614.25 252,-614.25 252,-614.25 252,-614.25 169.87,-614.25 145.06,-578.42 99.25,-510.25 48.41,-434.59 41.3,-322.33 41.01,-269.61"/>
<polygon fill="black" stroke="black" points="44.51,-269.94 41.04,-259.93 37.51,-269.92 44.51,-269.94"/>
<text text-anchor="middle" x="814" y="-615.2" font-family="Times,serif" font-size="14.00">hard_shutdown</text>
</g>
<!-- RoughMulticoreUndervolt&#45;&gt;POST -->
<g id="edge12" class="edge">
<title>RoughMulticoreUndervolt&#45;&gt;POST</title>
<path fill="none" stroke="black" d="M1573.32,-518.25C1506.85,-518.25 1409.77,-518.25 1325,-518.25 947.62,-518.25 947.62,-518.25 947.62,-518.25 808.9,-518.25 434.1,-587.99 323.5,-504.25 261.72,-457.48 253.2,-356.98 253.03,-306.89"/>
<polygon fill="black" stroke="black" points="256.53,-307.13 253.12,-297.1 249.53,-307.07 256.53,-307.13"/>
<text text-anchor="middle" x="948.62" y="-520.76" font-family="Times,serif" font-size="14.00">reboot</text>
</g>
<!-- PreciseMulticoreUndervolt&#45;&gt;PoweredOff -->
<g id="edge13" class="edge">
<title>PreciseMulticoreUndervolt&#45;&gt;PoweredOff</title>
<path fill="none" stroke="black" d="M1643.61,-362.68C1628.48,-389.56 1596.44,-438.87 1554,-462.25 1540.34,-469.78 1013.25,-536.55 997.75,-538.25 859.21,-553.47 824.62,-564.25 685.25,-564.25 252,-564.25 252,-564.25 252,-564.25 112.29,-564.25 60.65,-349.73 46.26,-269.8"/>
<polygon fill="black" stroke="black" points="49.74,-269.35 44.59,-260.09 42.84,-270.54 49.74,-269.35"/>
<text text-anchor="middle" x="814" y="-564.33" font-family="Times,serif" font-size="14.00">hard_shutdown</text>
</g>
<!-- PreciseMulticoreUndervolt&#45;&gt;POST -->
<g id="edge14" class="edge">
<title>PreciseMulticoreUndervolt&#45;&gt;POST</title>
<path fill="none" stroke="black" d="M1571.64,-344.25C1505.22,-344.25 1409.06,-344.25 1325,-344.25 567.38,-344.25 567.38,-344.25 567.38,-344.25 465.67,-344.25 349.41,-310.08 291.26,-290.55"/>
<polygon fill="black" stroke="black" points="292.45,-287.26 281.85,-287.34 290.19,-293.88 292.45,-287.26"/>
<text text-anchor="middle" x="948.62" y="-345.2" font-family="Times,serif" font-size="14.00">reboot</text>
</g>
<!-- SingleCoreTuning&#45;&gt;PoweredOff -->
<g id="edge25" class="edge">
<title>SingleCoreTuning&#45;&gt;PoweredOff</title>
<path fill="none" stroke="black" d="M1631.85,-158.86C1581.79,-117.8 1451.67,-22.25 1325,-22.25 252,-22.25 252,-22.25 252,-22.25 171.34,-22.25 152.68,-59.82 99.25,-120.25 75.65,-146.94 59.57,-185.01 50.52,-211.07"/>
<polygon fill="black" stroke="black" points="47.27,-209.75 47.44,-220.34 53.91,-211.95 47.27,-209.75"/>
<text text-anchor="middle" x="814" y="-23.2" font-family="Times,serif" font-size="14.00">hard_shutdown</text>
</g>
<!-- SingleCoreTuning&#45;&gt;POST -->
<g id="edge26" class="edge">
<title>SingleCoreTuning&#45;&gt;POST</title>
<path fill="none" stroke="black" d="M1596.32,-177.25C1530.86,-177.25 1420.17,-177.25 1325,-177.25 813,-177.25 813,-177.25 813,-177.25 613.71,-177.25 380.62,-239.6 291.36,-265.83"/>
<polygon fill="black" stroke="black" points="290.5,-262.44 281.91,-268.64 292.5,-269.15 290.5,-262.44"/>
<text text-anchor="middle" x="948.62" y="-178.2" font-family="Times,serif" font-size="14.00">reboot</text>
</g>
<!-- BootLoop&#45;&gt;PoweredOff -->
<g id="edge21" class="edge">
<title>BootLoop&#45;&gt;PoweredOff</title>
<path fill="none" stroke="black" d="M532.49,-161.55C485.01,-163.65 397.49,-168.66 323.5,-179.25 222.7,-193.68 198.57,-203.78 99.25,-226.25 97.1,-226.74 94.91,-227.24 92.7,-227.75"/>
<polygon fill="black" stroke="black" points="91.98,-224.32 83.05,-230.02 93.59,-231.14 91.98,-224.32"/>
<text text-anchor="middle" x="253" y="-202.61" font-family="Times,serif" font-size="14.00">trigger_cmos_reset</text>
</g>
</g>
</svg>
